<mxfile host="app.diagrams.net" modified="2021-12-09T13:13:56.620Z" agent="5.0 (Macintosh; Intel Mac OS X 10_15_7) AppleWebKit/537.36 (KHTML, like Gecko) Chrome/96.0.4664.55 Safari/537.36" etag="xuAf2ETOpdU_3ADNuLiZ" version="15.9.1" type="github">
  <diagram id="CDUZLJEo9e2KFmX8wC-A" name="第 1 页">
    <mxGraphModel dx="1444" dy="329" grid="1" gridSize="10" guides="1" tooltips="1" connect="1" arrows="1" fold="1" page="1" pageScale="1" pageWidth="827" pageHeight="1169" math="0" shadow="0">
      <root>
        <mxCell id="0" />
        <mxCell id="1" parent="0" />
        <mxCell id="Ufp4T4kjw3DvkqteefDN-25" style="edgeStyle=orthogonalEdgeStyle;rounded=0;orthogonalLoop=1;jettySize=auto;html=1;exitX=0.5;exitY=0;exitDx=0;exitDy=0;entryX=0.5;entryY=1;entryDx=0;entryDy=0;dashed=1;dashPattern=1 1;endArrow=classic;endFill=1;sketch=1;" edge="1" parent="1" source="Ufp4T4kjw3DvkqteefDN-1" target="Ufp4T4kjw3DvkqteefDN-7">
          <mxGeometry relative="1" as="geometry" />
        </mxCell>
        <mxCell id="Ufp4T4kjw3DvkqteefDN-1" value="0" style="rounded=0;whiteSpace=wrap;html=1;sketch=1;shadow=1;fillColor=#f8cecc;gradientColor=#ea6b66;strokeColor=#b85450;" vertex="1" parent="1">
          <mxGeometry x="280" y="160" width="40" height="30" as="geometry" />
        </mxCell>
        <mxCell id="Ufp4T4kjw3DvkqteefDN-26" style="edgeStyle=orthogonalEdgeStyle;rounded=0;orthogonalLoop=1;jettySize=auto;html=1;exitX=0.5;exitY=0;exitDx=0;exitDy=0;entryX=0.5;entryY=1;entryDx=0;entryDy=0;dashed=1;dashPattern=1 1;endArrow=classic;endFill=1;sketch=1;" edge="1" parent="1" source="Ufp4T4kjw3DvkqteefDN-2" target="Ufp4T4kjw3DvkqteefDN-11">
          <mxGeometry relative="1" as="geometry" />
        </mxCell>
        <mxCell id="Ufp4T4kjw3DvkqteefDN-2" value="1" style="rounded=0;whiteSpace=wrap;html=1;sketch=1;shadow=1;fillColor=#f8cecc;gradientColor=#ea6b66;strokeColor=#b85450;" vertex="1" parent="1">
          <mxGeometry x="320" y="160" width="40" height="30" as="geometry" />
        </mxCell>
        <mxCell id="Ufp4T4kjw3DvkqteefDN-27" style="edgeStyle=orthogonalEdgeStyle;rounded=0;orthogonalLoop=1;jettySize=auto;html=1;exitX=0.5;exitY=0;exitDx=0;exitDy=0;entryX=0.5;entryY=1;entryDx=0;entryDy=0;dashed=1;dashPattern=1 1;endArrow=classic;endFill=1;sketch=1;" edge="1" parent="1" source="Ufp4T4kjw3DvkqteefDN-3" target="Ufp4T4kjw3DvkqteefDN-14">
          <mxGeometry relative="1" as="geometry" />
        </mxCell>
        <mxCell id="Ufp4T4kjw3DvkqteefDN-3" value="2" style="rounded=0;whiteSpace=wrap;html=1;sketch=1;shadow=1;fillColor=#f8cecc;gradientColor=#ea6b66;strokeColor=#b85450;" vertex="1" parent="1">
          <mxGeometry x="360" y="160" width="40" height="30" as="geometry" />
        </mxCell>
        <mxCell id="Ufp4T4kjw3DvkqteefDN-28" style="edgeStyle=orthogonalEdgeStyle;rounded=0;orthogonalLoop=1;jettySize=auto;html=1;exitX=0.5;exitY=0;exitDx=0;exitDy=0;entryX=0.5;entryY=1;entryDx=0;entryDy=0;dashed=1;dashPattern=1 1;endArrow=classic;endFill=1;sketch=1;" edge="1" parent="1" source="Ufp4T4kjw3DvkqteefDN-4" target="Ufp4T4kjw3DvkqteefDN-17">
          <mxGeometry relative="1" as="geometry" />
        </mxCell>
        <mxCell id="Ufp4T4kjw3DvkqteefDN-4" value="3" style="rounded=0;whiteSpace=wrap;html=1;sketch=1;shadow=1;fillColor=#f8cecc;gradientColor=#ea6b66;strokeColor=#b85450;" vertex="1" parent="1">
          <mxGeometry x="400" y="160" width="40" height="30" as="geometry" />
        </mxCell>
        <mxCell id="Ufp4T4kjw3DvkqteefDN-29" style="edgeStyle=orthogonalEdgeStyle;rounded=0;orthogonalLoop=1;jettySize=auto;html=1;exitX=0.5;exitY=0;exitDx=0;exitDy=0;entryX=0.5;entryY=1;entryDx=0;entryDy=0;dashed=1;dashPattern=1 1;endArrow=classic;endFill=1;sketch=1;" edge="1" parent="1" source="Ufp4T4kjw3DvkqteefDN-5" target="Ufp4T4kjw3DvkqteefDN-20">
          <mxGeometry relative="1" as="geometry" />
        </mxCell>
        <mxCell id="Ufp4T4kjw3DvkqteefDN-5" value="4" style="rounded=0;whiteSpace=wrap;html=1;sketch=1;shadow=1;fillColor=#f8cecc;gradientColor=#ea6b66;strokeColor=#b85450;" vertex="1" parent="1">
          <mxGeometry x="440" y="160" width="40" height="30" as="geometry" />
        </mxCell>
        <mxCell id="Ufp4T4kjw3DvkqteefDN-30" style="edgeStyle=orthogonalEdgeStyle;rounded=0;orthogonalLoop=1;jettySize=auto;html=1;exitX=0.5;exitY=0;exitDx=0;exitDy=0;entryX=0.5;entryY=1;entryDx=0;entryDy=0;dashed=1;dashPattern=1 1;endArrow=classic;endFill=1;sketch=1;" edge="1" parent="1" source="Ufp4T4kjw3DvkqteefDN-6" target="Ufp4T4kjw3DvkqteefDN-23">
          <mxGeometry relative="1" as="geometry" />
        </mxCell>
        <mxCell id="Ufp4T4kjw3DvkqteefDN-6" value="5" style="rounded=0;whiteSpace=wrap;html=1;sketch=1;shadow=1;fillColor=#f8cecc;gradientColor=#ea6b66;strokeColor=#b85450;" vertex="1" parent="1">
          <mxGeometry x="480" y="160" width="40" height="30" as="geometry" />
        </mxCell>
        <mxCell id="Ufp4T4kjw3DvkqteefDN-7" value="" style="ellipse;whiteSpace=wrap;html=1;aspect=fixed;shadow=1;sketch=1;fillColor=#d5e8d4;gradientColor=#97d077;strokeColor=#82b366;" vertex="1" parent="1">
          <mxGeometry x="290" y="120" width="20" height="20" as="geometry" />
        </mxCell>
        <mxCell id="Ufp4T4kjw3DvkqteefDN-11" value="" style="ellipse;whiteSpace=wrap;html=1;aspect=fixed;shadow=1;sketch=1;fillColor=#d5e8d4;gradientColor=#97d077;strokeColor=#82b366;" vertex="1" parent="1">
          <mxGeometry x="330" y="120" width="20" height="20" as="geometry" />
        </mxCell>
        <mxCell id="Ufp4T4kjw3DvkqteefDN-14" value="" style="ellipse;whiteSpace=wrap;html=1;aspect=fixed;shadow=1;sketch=1;fillColor=#d5e8d4;gradientColor=#97d077;strokeColor=#82b366;" vertex="1" parent="1">
          <mxGeometry x="370" y="120" width="20" height="20" as="geometry" />
        </mxCell>
        <mxCell id="Ufp4T4kjw3DvkqteefDN-17" value="" style="ellipse;whiteSpace=wrap;html=1;aspect=fixed;shadow=1;sketch=1;fillColor=#d5e8d4;gradientColor=#97d077;strokeColor=#82b366;" vertex="1" parent="1">
          <mxGeometry x="410" y="120" width="20" height="20" as="geometry" />
        </mxCell>
        <mxCell id="Ufp4T4kjw3DvkqteefDN-20" value="" style="ellipse;whiteSpace=wrap;html=1;aspect=fixed;shadow=1;sketch=1;fillColor=#d5e8d4;gradientColor=#97d077;strokeColor=#82b366;" vertex="1" parent="1">
          <mxGeometry x="450" y="120" width="20" height="20" as="geometry" />
        </mxCell>
        <mxCell id="Ufp4T4kjw3DvkqteefDN-23" value="" style="ellipse;whiteSpace=wrap;html=1;aspect=fixed;shadow=1;sketch=1;fillColor=#d5e8d4;gradientColor=#97d077;strokeColor=#82b366;" vertex="1" parent="1">
          <mxGeometry x="490" y="120" width="20" height="20" as="geometry" />
        </mxCell>
        <mxCell id="Ufp4T4kjw3DvkqteefDN-54" style="edgeStyle=orthogonalEdgeStyle;rounded=0;orthogonalLoop=1;jettySize=auto;html=1;exitX=0.5;exitY=0;exitDx=0;exitDy=0;entryX=0.5;entryY=1;entryDx=0;entryDy=0;dashed=1;dashPattern=1 1;endArrow=classic;endFill=1;sketch=1;" edge="1" parent="1" source="Ufp4T4kjw3DvkqteefDN-55" target="Ufp4T4kjw3DvkqteefDN-66">
          <mxGeometry relative="1" as="geometry" />
        </mxCell>
        <mxCell id="Ufp4T4kjw3DvkqteefDN-55" value="0" style="rounded=0;whiteSpace=wrap;html=1;sketch=1;shadow=1;fillColor=#f8cecc;gradientColor=#ea6b66;strokeColor=#b85450;" vertex="1" parent="1">
          <mxGeometry y="430" width="40" height="30" as="geometry" />
        </mxCell>
        <mxCell id="Ufp4T4kjw3DvkqteefDN-57" value="1" style="rounded=0;whiteSpace=wrap;html=1;sketch=1;shadow=1;fillColor=#f8cecc;gradientColor=#ea6b66;strokeColor=#b85450;" vertex="1" parent="1">
          <mxGeometry x="40" y="430" width="40" height="30" as="geometry" />
        </mxCell>
        <mxCell id="Ufp4T4kjw3DvkqteefDN-58" style="edgeStyle=orthogonalEdgeStyle;rounded=0;orthogonalLoop=1;jettySize=auto;html=1;exitX=0.5;exitY=0;exitDx=0;exitDy=0;entryX=0.5;entryY=1;entryDx=0;entryDy=0;dashed=1;dashPattern=1 1;endArrow=classic;endFill=1;sketch=1;" edge="1" parent="1" source="Ufp4T4kjw3DvkqteefDN-59" target="Ufp4T4kjw3DvkqteefDN-68">
          <mxGeometry relative="1" as="geometry" />
        </mxCell>
        <mxCell id="Ufp4T4kjw3DvkqteefDN-59" value="2" style="rounded=0;whiteSpace=wrap;html=1;sketch=1;shadow=1;fillColor=#f8cecc;gradientColor=#ea6b66;strokeColor=#b85450;" vertex="1" parent="1">
          <mxGeometry x="80" y="430" width="40" height="30" as="geometry" />
        </mxCell>
        <mxCell id="Ufp4T4kjw3DvkqteefDN-60" style="edgeStyle=orthogonalEdgeStyle;rounded=0;orthogonalLoop=1;jettySize=auto;html=1;exitX=0.5;exitY=0;exitDx=0;exitDy=0;entryX=0.5;entryY=1;entryDx=0;entryDy=0;dashed=1;dashPattern=1 1;endArrow=classic;endFill=1;sketch=1;" edge="1" parent="1" source="Ufp4T4kjw3DvkqteefDN-61" target="Ufp4T4kjw3DvkqteefDN-69">
          <mxGeometry relative="1" as="geometry" />
        </mxCell>
        <mxCell id="Ufp4T4kjw3DvkqteefDN-61" value="3" style="rounded=0;whiteSpace=wrap;html=1;sketch=1;shadow=1;fillColor=#f8cecc;gradientColor=#ea6b66;strokeColor=#b85450;" vertex="1" parent="1">
          <mxGeometry x="120" y="430" width="40" height="30" as="geometry" />
        </mxCell>
        <mxCell id="Ufp4T4kjw3DvkqteefDN-62" style="edgeStyle=orthogonalEdgeStyle;rounded=0;orthogonalLoop=1;jettySize=auto;html=1;exitX=0.5;exitY=0;exitDx=0;exitDy=0;entryX=0.5;entryY=1;entryDx=0;entryDy=0;dashed=1;dashPattern=1 1;endArrow=classic;endFill=1;sketch=1;" edge="1" parent="1" source="Ufp4T4kjw3DvkqteefDN-63" target="Ufp4T4kjw3DvkqteefDN-70">
          <mxGeometry relative="1" as="geometry" />
        </mxCell>
        <mxCell id="Ufp4T4kjw3DvkqteefDN-63" value="4" style="rounded=0;whiteSpace=wrap;html=1;sketch=1;shadow=1;fillColor=#f8cecc;gradientColor=#ea6b66;strokeColor=#b85450;" vertex="1" parent="1">
          <mxGeometry x="160" y="430" width="40" height="30" as="geometry" />
        </mxCell>
        <mxCell id="Ufp4T4kjw3DvkqteefDN-64" style="edgeStyle=orthogonalEdgeStyle;rounded=0;orthogonalLoop=1;jettySize=auto;html=1;exitX=0.5;exitY=0;exitDx=0;exitDy=0;entryX=0.5;entryY=1;entryDx=0;entryDy=0;dashed=1;dashPattern=1 1;endArrow=classic;endFill=1;sketch=1;" edge="1" parent="1" source="Ufp4T4kjw3DvkqteefDN-65" target="Ufp4T4kjw3DvkqteefDN-71">
          <mxGeometry relative="1" as="geometry" />
        </mxCell>
        <mxCell id="Ufp4T4kjw3DvkqteefDN-65" value="5" style="rounded=0;whiteSpace=wrap;html=1;sketch=1;shadow=1;fillColor=#f8cecc;gradientColor=#ea6b66;strokeColor=#b85450;" vertex="1" parent="1">
          <mxGeometry x="200" y="430" width="40" height="30" as="geometry" />
        </mxCell>
        <mxCell id="Ufp4T4kjw3DvkqteefDN-74" value="" style="edgeStyle=orthogonalEdgeStyle;rounded=0;sketch=1;orthogonalLoop=1;jettySize=auto;html=1;dashed=1;dashPattern=1 1;endArrow=classic;endFill=1;" edge="1" parent="1" source="Ufp4T4kjw3DvkqteefDN-66" target="Ufp4T4kjw3DvkqteefDN-73">
          <mxGeometry relative="1" as="geometry" />
        </mxCell>
        <mxCell id="Ufp4T4kjw3DvkqteefDN-66" value="" style="ellipse;whiteSpace=wrap;html=1;aspect=fixed;shadow=1;sketch=1;fillColor=#d5e8d4;gradientColor=#97d077;strokeColor=#82b366;" vertex="1" parent="1">
          <mxGeometry x="10" y="390" width="20" height="20" as="geometry" />
        </mxCell>
        <mxCell id="Ufp4T4kjw3DvkqteefDN-68" value="" style="ellipse;whiteSpace=wrap;html=1;aspect=fixed;shadow=1;sketch=1;fillColor=#d5e8d4;gradientColor=#97d077;strokeColor=#82b366;" vertex="1" parent="1">
          <mxGeometry x="90" y="390" width="20" height="20" as="geometry" />
        </mxCell>
        <mxCell id="Ufp4T4kjw3DvkqteefDN-69" value="" style="ellipse;whiteSpace=wrap;html=1;aspect=fixed;shadow=1;sketch=1;fillColor=#d5e8d4;gradientColor=#97d077;strokeColor=#82b366;" vertex="1" parent="1">
          <mxGeometry x="130" y="390" width="20" height="20" as="geometry" />
        </mxCell>
        <mxCell id="Ufp4T4kjw3DvkqteefDN-70" value="" style="ellipse;whiteSpace=wrap;html=1;aspect=fixed;shadow=1;sketch=1;fillColor=#d5e8d4;gradientColor=#97d077;strokeColor=#82b366;" vertex="1" parent="1">
          <mxGeometry x="170" y="390" width="20" height="20" as="geometry" />
        </mxCell>
        <mxCell id="Ufp4T4kjw3DvkqteefDN-71" value="" style="ellipse;whiteSpace=wrap;html=1;aspect=fixed;shadow=1;sketch=1;fillColor=#d5e8d4;gradientColor=#97d077;strokeColor=#82b366;" vertex="1" parent="1">
          <mxGeometry x="210" y="390" width="20" height="20" as="geometry" />
        </mxCell>
        <mxCell id="Ufp4T4kjw3DvkqteefDN-73" value="" style="ellipse;whiteSpace=wrap;html=1;aspect=fixed;shadow=1;sketch=1;fillColor=#d5e8d4;gradientColor=#97d077;strokeColor=#82b366;" vertex="1" parent="1">
          <mxGeometry x="10" y="340" width="20" height="20" as="geometry" />
        </mxCell>
        <mxCell id="Ufp4T4kjw3DvkqteefDN-77" value="" style="line;strokeWidth=2;html=1;shadow=1;sketch=1;fillColor=#f5f5f5;gradientColor=#b3b3b3;strokeColor=#666666;" vertex="1" parent="1">
          <mxGeometry y="470" width="80" height="10" as="geometry" />
        </mxCell>
        <mxCell id="Ufp4T4kjw3DvkqteefDN-78" style="edgeStyle=orthogonalEdgeStyle;rounded=0;orthogonalLoop=1;jettySize=auto;html=1;exitX=0.5;exitY=0;exitDx=0;exitDy=0;entryX=0.5;entryY=1;entryDx=0;entryDy=0;dashed=1;dashPattern=1 1;endArrow=classic;endFill=1;sketch=1;" edge="1" parent="1" source="Ufp4T4kjw3DvkqteefDN-79" target="Ufp4T4kjw3DvkqteefDN-90">
          <mxGeometry relative="1" as="geometry" />
        </mxCell>
        <mxCell id="Ufp4T4kjw3DvkqteefDN-79" value="0" style="rounded=0;whiteSpace=wrap;html=1;sketch=1;shadow=1;fillColor=#f8cecc;gradientColor=#ea6b66;strokeColor=#b85450;" vertex="1" parent="1">
          <mxGeometry x="320" y="430" width="40" height="30" as="geometry" />
        </mxCell>
        <mxCell id="Ufp4T4kjw3DvkqteefDN-80" value="1" style="rounded=0;whiteSpace=wrap;html=1;sketch=1;shadow=1;fillColor=#f8cecc;gradientColor=#ea6b66;strokeColor=#b85450;" vertex="1" parent="1">
          <mxGeometry x="360" y="430" width="40" height="30" as="geometry" />
        </mxCell>
        <mxCell id="Ufp4T4kjw3DvkqteefDN-81" style="edgeStyle=orthogonalEdgeStyle;rounded=0;orthogonalLoop=1;jettySize=auto;html=1;exitX=0.5;exitY=0;exitDx=0;exitDy=0;entryX=0.5;entryY=1;entryDx=0;entryDy=0;dashed=1;dashPattern=1 1;endArrow=classic;endFill=1;sketch=1;" edge="1" parent="1" source="Ufp4T4kjw3DvkqteefDN-82" target="Ufp4T4kjw3DvkqteefDN-91">
          <mxGeometry relative="1" as="geometry" />
        </mxCell>
        <mxCell id="Ufp4T4kjw3DvkqteefDN-82" value="2" style="rounded=0;whiteSpace=wrap;html=1;sketch=1;shadow=1;fillColor=#f8cecc;gradientColor=#ea6b66;strokeColor=#b85450;" vertex="1" parent="1">
          <mxGeometry x="400" y="430" width="40" height="30" as="geometry" />
        </mxCell>
        <mxCell id="Ufp4T4kjw3DvkqteefDN-84" value="3" style="rounded=0;whiteSpace=wrap;html=1;sketch=1;shadow=1;fillColor=#f8cecc;gradientColor=#ea6b66;strokeColor=#b85450;" vertex="1" parent="1">
          <mxGeometry x="440" y="430" width="40" height="30" as="geometry" />
        </mxCell>
        <mxCell id="Ufp4T4kjw3DvkqteefDN-85" style="edgeStyle=orthogonalEdgeStyle;rounded=0;orthogonalLoop=1;jettySize=auto;html=1;exitX=0.5;exitY=0;exitDx=0;exitDy=0;entryX=0.5;entryY=1;entryDx=0;entryDy=0;dashed=1;dashPattern=1 1;endArrow=classic;endFill=1;sketch=1;" edge="1" parent="1" source="Ufp4T4kjw3DvkqteefDN-86" target="Ufp4T4kjw3DvkqteefDN-93">
          <mxGeometry relative="1" as="geometry" />
        </mxCell>
        <mxCell id="Ufp4T4kjw3DvkqteefDN-86" value="4" style="rounded=0;whiteSpace=wrap;html=1;sketch=1;shadow=1;fillColor=#f8cecc;gradientColor=#ea6b66;strokeColor=#b85450;" vertex="1" parent="1">
          <mxGeometry x="480" y="430" width="40" height="30" as="geometry" />
        </mxCell>
        <mxCell id="Ufp4T4kjw3DvkqteefDN-87" style="edgeStyle=orthogonalEdgeStyle;rounded=0;orthogonalLoop=1;jettySize=auto;html=1;exitX=0.5;exitY=0;exitDx=0;exitDy=0;entryX=0.5;entryY=1;entryDx=0;entryDy=0;dashed=1;dashPattern=1 1;endArrow=classic;endFill=1;sketch=1;" edge="1" parent="1" source="Ufp4T4kjw3DvkqteefDN-88" target="Ufp4T4kjw3DvkqteefDN-94">
          <mxGeometry relative="1" as="geometry" />
        </mxCell>
        <mxCell id="Ufp4T4kjw3DvkqteefDN-88" value="5" style="rounded=0;whiteSpace=wrap;html=1;sketch=1;shadow=1;fillColor=#f8cecc;gradientColor=#ea6b66;strokeColor=#b85450;" vertex="1" parent="1">
          <mxGeometry x="520" y="430" width="40" height="30" as="geometry" />
        </mxCell>
        <mxCell id="Ufp4T4kjw3DvkqteefDN-89" value="" style="edgeStyle=orthogonalEdgeStyle;rounded=0;sketch=1;orthogonalLoop=1;jettySize=auto;html=1;dashed=1;dashPattern=1 1;endArrow=classic;endFill=1;" edge="1" parent="1" source="Ufp4T4kjw3DvkqteefDN-90" target="Ufp4T4kjw3DvkqteefDN-95">
          <mxGeometry relative="1" as="geometry" />
        </mxCell>
        <mxCell id="Ufp4T4kjw3DvkqteefDN-90" value="" style="ellipse;whiteSpace=wrap;html=1;aspect=fixed;shadow=1;sketch=1;fillColor=#d5e8d4;gradientColor=#97d077;strokeColor=#82b366;" vertex="1" parent="1">
          <mxGeometry x="330" y="390" width="20" height="20" as="geometry" />
        </mxCell>
        <mxCell id="Ufp4T4kjw3DvkqteefDN-98" value="" style="edgeStyle=orthogonalEdgeStyle;rounded=0;sketch=1;orthogonalLoop=1;jettySize=auto;html=1;dashed=1;dashPattern=1 1;endArrow=classic;endFill=1;" edge="1" parent="1" source="Ufp4T4kjw3DvkqteefDN-91" target="Ufp4T4kjw3DvkqteefDN-97">
          <mxGeometry relative="1" as="geometry" />
        </mxCell>
        <mxCell id="Ufp4T4kjw3DvkqteefDN-91" value="" style="ellipse;whiteSpace=wrap;html=1;aspect=fixed;shadow=1;sketch=1;fillColor=#d5e8d4;gradientColor=#97d077;strokeColor=#82b366;" vertex="1" parent="1">
          <mxGeometry x="410" y="390" width="20" height="20" as="geometry" />
        </mxCell>
        <mxCell id="Ufp4T4kjw3DvkqteefDN-93" value="" style="ellipse;whiteSpace=wrap;html=1;aspect=fixed;shadow=1;sketch=1;fillColor=#d5e8d4;gradientColor=#97d077;strokeColor=#82b366;" vertex="1" parent="1">
          <mxGeometry x="490" y="390" width="20" height="20" as="geometry" />
        </mxCell>
        <mxCell id="Ufp4T4kjw3DvkqteefDN-94" value="" style="ellipse;whiteSpace=wrap;html=1;aspect=fixed;shadow=1;sketch=1;fillColor=#d5e8d4;gradientColor=#97d077;strokeColor=#82b366;" vertex="1" parent="1">
          <mxGeometry x="530" y="390" width="20" height="20" as="geometry" />
        </mxCell>
        <mxCell id="Ufp4T4kjw3DvkqteefDN-95" value="" style="ellipse;whiteSpace=wrap;html=1;aspect=fixed;shadow=1;sketch=1;fillColor=#d5e8d4;gradientColor=#97d077;strokeColor=#82b366;" vertex="1" parent="1">
          <mxGeometry x="330" y="340" width="20" height="20" as="geometry" />
        </mxCell>
        <mxCell id="Ufp4T4kjw3DvkqteefDN-96" value="" style="line;strokeWidth=2;html=1;shadow=1;sketch=1;fillColor=#f5f5f5;gradientColor=#b3b3b3;strokeColor=#666666;" vertex="1" parent="1">
          <mxGeometry x="400" y="470" width="80" height="10" as="geometry" />
        </mxCell>
        <mxCell id="Ufp4T4kjw3DvkqteefDN-97" value="" style="ellipse;whiteSpace=wrap;html=1;aspect=fixed;shadow=1;sketch=1;fillColor=#d5e8d4;gradientColor=#97d077;strokeColor=#82b366;" vertex="1" parent="1">
          <mxGeometry x="410" y="340" width="20" height="20" as="geometry" />
        </mxCell>
        <mxCell id="Ufp4T4kjw3DvkqteefDN-99" style="edgeStyle=orthogonalEdgeStyle;rounded=0;orthogonalLoop=1;jettySize=auto;html=1;exitX=0.5;exitY=0;exitDx=0;exitDy=0;entryX=0.5;entryY=1;entryDx=0;entryDy=0;dashed=1;dashPattern=1 1;endArrow=classic;endFill=1;sketch=1;" edge="1" parent="1" source="Ufp4T4kjw3DvkqteefDN-100" target="Ufp4T4kjw3DvkqteefDN-110">
          <mxGeometry relative="1" as="geometry" />
        </mxCell>
        <mxCell id="Ufp4T4kjw3DvkqteefDN-100" value="0" style="rounded=0;whiteSpace=wrap;html=1;sketch=1;shadow=1;fillColor=#f8cecc;gradientColor=#ea6b66;strokeColor=#b85450;" vertex="1" parent="1">
          <mxGeometry x="640" y="430" width="40" height="30" as="geometry" />
        </mxCell>
        <mxCell id="Ufp4T4kjw3DvkqteefDN-101" value="1" style="rounded=0;whiteSpace=wrap;html=1;sketch=1;shadow=1;fillColor=#f8cecc;gradientColor=#ea6b66;strokeColor=#b85450;" vertex="1" parent="1">
          <mxGeometry x="680" y="430" width="40" height="30" as="geometry" />
        </mxCell>
        <mxCell id="Ufp4T4kjw3DvkqteefDN-102" style="edgeStyle=orthogonalEdgeStyle;rounded=0;orthogonalLoop=1;jettySize=auto;html=1;exitX=0.5;exitY=0;exitDx=0;exitDy=0;entryX=0.5;entryY=1;entryDx=0;entryDy=0;dashed=1;dashPattern=1 1;endArrow=classic;endFill=1;sketch=1;" edge="1" parent="1" source="Ufp4T4kjw3DvkqteefDN-103" target="Ufp4T4kjw3DvkqteefDN-112">
          <mxGeometry relative="1" as="geometry" />
        </mxCell>
        <mxCell id="Ufp4T4kjw3DvkqteefDN-103" value="2" style="rounded=0;whiteSpace=wrap;html=1;sketch=1;shadow=1;fillColor=#f8cecc;gradientColor=#ea6b66;strokeColor=#b85450;" vertex="1" parent="1">
          <mxGeometry x="720" y="430" width="40" height="30" as="geometry" />
        </mxCell>
        <mxCell id="Ufp4T4kjw3DvkqteefDN-104" value="3" style="rounded=0;whiteSpace=wrap;html=1;sketch=1;shadow=1;fillColor=#f8cecc;gradientColor=#ea6b66;strokeColor=#b85450;" vertex="1" parent="1">
          <mxGeometry x="760" y="430" width="40" height="30" as="geometry" />
        </mxCell>
        <mxCell id="Ufp4T4kjw3DvkqteefDN-105" style="edgeStyle=orthogonalEdgeStyle;rounded=0;orthogonalLoop=1;jettySize=auto;html=1;exitX=0.5;exitY=0;exitDx=0;exitDy=0;entryX=0.5;entryY=1;entryDx=0;entryDy=0;dashed=1;dashPattern=1 1;endArrow=classic;endFill=1;sketch=1;" edge="1" parent="1" source="Ufp4T4kjw3DvkqteefDN-106" target="Ufp4T4kjw3DvkqteefDN-113">
          <mxGeometry relative="1" as="geometry" />
        </mxCell>
        <mxCell id="Ufp4T4kjw3DvkqteefDN-106" value="4" style="rounded=0;whiteSpace=wrap;html=1;sketch=1;shadow=1;fillColor=#f8cecc;gradientColor=#ea6b66;strokeColor=#b85450;" vertex="1" parent="1">
          <mxGeometry x="800" y="430" width="40" height="30" as="geometry" />
        </mxCell>
        <mxCell id="Ufp4T4kjw3DvkqteefDN-108" value="5" style="rounded=0;whiteSpace=wrap;html=1;sketch=1;shadow=1;fillColor=#f8cecc;gradientColor=#ea6b66;strokeColor=#b85450;" vertex="1" parent="1">
          <mxGeometry x="840" y="430" width="40" height="30" as="geometry" />
        </mxCell>
        <mxCell id="Ufp4T4kjw3DvkqteefDN-109" value="" style="edgeStyle=orthogonalEdgeStyle;rounded=0;sketch=1;orthogonalLoop=1;jettySize=auto;html=1;dashed=1;dashPattern=1 1;endArrow=classic;endFill=1;" edge="1" parent="1" source="Ufp4T4kjw3DvkqteefDN-110" target="Ufp4T4kjw3DvkqteefDN-115">
          <mxGeometry relative="1" as="geometry" />
        </mxCell>
        <mxCell id="Ufp4T4kjw3DvkqteefDN-110" value="" style="ellipse;whiteSpace=wrap;html=1;aspect=fixed;shadow=1;sketch=1;fillColor=#d5e8d4;gradientColor=#97d077;strokeColor=#82b366;" vertex="1" parent="1">
          <mxGeometry x="650" y="390" width="20" height="20" as="geometry" />
        </mxCell>
        <mxCell id="Ufp4T4kjw3DvkqteefDN-111" value="" style="edgeStyle=orthogonalEdgeStyle;rounded=0;sketch=1;orthogonalLoop=1;jettySize=auto;html=1;dashed=1;dashPattern=1 1;endArrow=classic;endFill=1;" edge="1" parent="1" source="Ufp4T4kjw3DvkqteefDN-112" target="Ufp4T4kjw3DvkqteefDN-117">
          <mxGeometry relative="1" as="geometry" />
        </mxCell>
        <mxCell id="Ufp4T4kjw3DvkqteefDN-112" value="" style="ellipse;whiteSpace=wrap;html=1;aspect=fixed;shadow=1;sketch=1;fillColor=#d5e8d4;gradientColor=#97d077;strokeColor=#82b366;" vertex="1" parent="1">
          <mxGeometry x="730" y="390" width="20" height="20" as="geometry" />
        </mxCell>
        <mxCell id="Ufp4T4kjw3DvkqteefDN-120" value="" style="edgeStyle=orthogonalEdgeStyle;rounded=0;sketch=1;orthogonalLoop=1;jettySize=auto;html=1;dashed=1;dashPattern=1 1;endArrow=classic;endFill=1;" edge="1" parent="1" source="Ufp4T4kjw3DvkqteefDN-113" target="Ufp4T4kjw3DvkqteefDN-119">
          <mxGeometry relative="1" as="geometry" />
        </mxCell>
        <mxCell id="Ufp4T4kjw3DvkqteefDN-113" value="" style="ellipse;whiteSpace=wrap;html=1;aspect=fixed;shadow=1;sketch=1;fillColor=#d5e8d4;gradientColor=#97d077;strokeColor=#82b366;" vertex="1" parent="1">
          <mxGeometry x="810" y="390" width="20" height="20" as="geometry" />
        </mxCell>
        <mxCell id="Ufp4T4kjw3DvkqteefDN-115" value="" style="ellipse;whiteSpace=wrap;html=1;aspect=fixed;shadow=1;sketch=1;fillColor=#d5e8d4;gradientColor=#97d077;strokeColor=#82b366;" vertex="1" parent="1">
          <mxGeometry x="650" y="340" width="20" height="20" as="geometry" />
        </mxCell>
        <mxCell id="Ufp4T4kjw3DvkqteefDN-116" value="" style="line;strokeWidth=2;html=1;shadow=1;sketch=1;fillColor=#f5f5f5;gradientColor=#b3b3b3;strokeColor=#666666;" vertex="1" parent="1">
          <mxGeometry x="800" y="470" width="80" height="10" as="geometry" />
        </mxCell>
        <mxCell id="Ufp4T4kjw3DvkqteefDN-117" value="" style="ellipse;whiteSpace=wrap;html=1;aspect=fixed;shadow=1;sketch=1;fillColor=#d5e8d4;gradientColor=#97d077;strokeColor=#82b366;" vertex="1" parent="1">
          <mxGeometry x="730" y="340" width="20" height="20" as="geometry" />
        </mxCell>
        <mxCell id="Ufp4T4kjw3DvkqteefDN-119" value="" style="ellipse;whiteSpace=wrap;html=1;aspect=fixed;shadow=1;sketch=1;fillColor=#d5e8d4;gradientColor=#97d077;strokeColor=#82b366;" vertex="1" parent="1">
          <mxGeometry x="810" y="340" width="20" height="20" as="geometry" />
        </mxCell>
        <mxCell id="Ufp4T4kjw3DvkqteefDN-140" style="edgeStyle=orthogonalEdgeStyle;rounded=0;orthogonalLoop=1;jettySize=auto;html=1;exitX=0.5;exitY=0;exitDx=0;exitDy=0;entryX=0.5;entryY=1;entryDx=0;entryDy=0;dashed=1;dashPattern=1 1;endArrow=classic;endFill=1;sketch=1;" edge="1" parent="1" source="Ufp4T4kjw3DvkqteefDN-141" target="Ufp4T4kjw3DvkqteefDN-150">
          <mxGeometry relative="1" as="geometry" />
        </mxCell>
        <mxCell id="Ufp4T4kjw3DvkqteefDN-141" value="0" style="rounded=0;whiteSpace=wrap;html=1;sketch=1;shadow=1;fillColor=#f8cecc;gradientColor=#ea6b66;strokeColor=#b85450;" vertex="1" parent="1">
          <mxGeometry y="745" width="40" height="30" as="geometry" />
        </mxCell>
        <mxCell id="Ufp4T4kjw3DvkqteefDN-142" value="1" style="rounded=0;whiteSpace=wrap;html=1;sketch=1;shadow=1;fillColor=#f8cecc;gradientColor=#ea6b66;strokeColor=#b85450;" vertex="1" parent="1">
          <mxGeometry x="40" y="745" width="40" height="30" as="geometry" />
        </mxCell>
        <mxCell id="Ufp4T4kjw3DvkqteefDN-144" value="2" style="rounded=0;whiteSpace=wrap;html=1;sketch=1;shadow=1;fillColor=#f8cecc;gradientColor=#ea6b66;strokeColor=#b85450;" vertex="1" parent="1">
          <mxGeometry x="80" y="745" width="40" height="30" as="geometry" />
        </mxCell>
        <mxCell id="Ufp4T4kjw3DvkqteefDN-145" value="3" style="rounded=0;whiteSpace=wrap;html=1;sketch=1;shadow=1;fillColor=#f8cecc;gradientColor=#ea6b66;strokeColor=#b85450;" vertex="1" parent="1">
          <mxGeometry x="120" y="745" width="40" height="30" as="geometry" />
        </mxCell>
        <mxCell id="Ufp4T4kjw3DvkqteefDN-146" style="edgeStyle=orthogonalEdgeStyle;rounded=0;orthogonalLoop=1;jettySize=auto;html=1;exitX=0.5;exitY=0;exitDx=0;exitDy=0;entryX=0.5;entryY=1;entryDx=0;entryDy=0;dashed=1;dashPattern=1 1;endArrow=classic;endFill=1;sketch=1;" edge="1" parent="1" source="Ufp4T4kjw3DvkqteefDN-147" target="Ufp4T4kjw3DvkqteefDN-154">
          <mxGeometry relative="1" as="geometry" />
        </mxCell>
        <mxCell id="Ufp4T4kjw3DvkqteefDN-147" value="4" style="rounded=0;whiteSpace=wrap;html=1;sketch=1;shadow=1;fillColor=#f8cecc;gradientColor=#ea6b66;strokeColor=#b85450;" vertex="1" parent="1">
          <mxGeometry x="160" y="745" width="40" height="30" as="geometry" />
        </mxCell>
        <mxCell id="Ufp4T4kjw3DvkqteefDN-148" value="5" style="rounded=0;whiteSpace=wrap;html=1;sketch=1;shadow=1;fillColor=#f8cecc;gradientColor=#ea6b66;strokeColor=#b85450;" vertex="1" parent="1">
          <mxGeometry x="200" y="745" width="40" height="30" as="geometry" />
        </mxCell>
        <mxCell id="Ufp4T4kjw3DvkqteefDN-149" value="" style="edgeStyle=orthogonalEdgeStyle;rounded=0;sketch=1;orthogonalLoop=1;jettySize=auto;html=1;dashed=1;dashPattern=1 1;endArrow=classic;endFill=1;" edge="1" parent="1" source="Ufp4T4kjw3DvkqteefDN-150" target="Ufp4T4kjw3DvkqteefDN-155">
          <mxGeometry relative="1" as="geometry" />
        </mxCell>
        <mxCell id="Ufp4T4kjw3DvkqteefDN-150" value="" style="ellipse;whiteSpace=wrap;html=1;aspect=fixed;shadow=1;sketch=1;fillColor=#d5e8d4;gradientColor=#97d077;strokeColor=#82b366;" vertex="1" parent="1">
          <mxGeometry x="10" y="705" width="20" height="20" as="geometry" />
        </mxCell>
        <mxCell id="Ufp4T4kjw3DvkqteefDN-153" value="" style="edgeStyle=orthogonalEdgeStyle;rounded=0;sketch=1;orthogonalLoop=1;jettySize=auto;html=1;dashed=1;dashPattern=1 1;endArrow=classic;endFill=1;" edge="1" parent="1" source="Ufp4T4kjw3DvkqteefDN-154" target="Ufp4T4kjw3DvkqteefDN-158">
          <mxGeometry relative="1" as="geometry" />
        </mxCell>
        <mxCell id="Ufp4T4kjw3DvkqteefDN-154" value="" style="ellipse;whiteSpace=wrap;html=1;aspect=fixed;shadow=1;sketch=1;fillColor=#d5e8d4;gradientColor=#97d077;strokeColor=#82b366;" vertex="1" parent="1">
          <mxGeometry x="170" y="705" width="20" height="20" as="geometry" />
        </mxCell>
        <mxCell id="Ufp4T4kjw3DvkqteefDN-161" value="" style="edgeStyle=orthogonalEdgeStyle;rounded=0;sketch=1;orthogonalLoop=1;jettySize=auto;html=1;dashed=1;dashPattern=1 1;endArrow=classic;endFill=1;" edge="1" parent="1" source="Ufp4T4kjw3DvkqteefDN-155" target="Ufp4T4kjw3DvkqteefDN-160">
          <mxGeometry relative="1" as="geometry" />
        </mxCell>
        <mxCell id="Ufp4T4kjw3DvkqteefDN-155" value="" style="ellipse;whiteSpace=wrap;html=1;aspect=fixed;shadow=1;sketch=1;fillColor=#d5e8d4;gradientColor=#97d077;strokeColor=#82b366;" vertex="1" parent="1">
          <mxGeometry x="10" y="666" width="20" height="20" as="geometry" />
        </mxCell>
        <mxCell id="Ufp4T4kjw3DvkqteefDN-156" value="" style="line;strokeWidth=2;html=1;shadow=1;sketch=1;fillColor=#f5f5f5;gradientColor=#b3b3b3;strokeColor=#666666;" vertex="1" parent="1">
          <mxGeometry y="785" width="160" height="10" as="geometry" />
        </mxCell>
        <mxCell id="Ufp4T4kjw3DvkqteefDN-158" value="" style="ellipse;whiteSpace=wrap;html=1;aspect=fixed;shadow=1;sketch=1;fillColor=#d5e8d4;gradientColor=#97d077;strokeColor=#82b366;" vertex="1" parent="1">
          <mxGeometry x="170" y="655" width="20" height="20" as="geometry" />
        </mxCell>
        <mxCell id="Ufp4T4kjw3DvkqteefDN-163" value="" style="edgeStyle=orthogonalEdgeStyle;rounded=0;sketch=1;orthogonalLoop=1;jettySize=auto;html=1;dashed=1;dashPattern=1 1;endArrow=classic;endFill=1;" edge="1" parent="1" source="Ufp4T4kjw3DvkqteefDN-160" target="Ufp4T4kjw3DvkqteefDN-162">
          <mxGeometry relative="1" as="geometry" />
        </mxCell>
        <mxCell id="Ufp4T4kjw3DvkqteefDN-160" value="" style="ellipse;whiteSpace=wrap;html=1;aspect=fixed;shadow=1;sketch=1;fillColor=#d5e8d4;gradientColor=#97d077;strokeColor=#82b366;" vertex="1" parent="1">
          <mxGeometry x="10" y="626" width="20" height="20" as="geometry" />
        </mxCell>
        <mxCell id="Ufp4T4kjw3DvkqteefDN-162" value="" style="ellipse;whiteSpace=wrap;html=1;aspect=fixed;shadow=1;sketch=1;fillColor=#d5e8d4;gradientColor=#97d077;strokeColor=#82b366;" vertex="1" parent="1">
          <mxGeometry x="10" y="585" width="20" height="20" as="geometry" />
        </mxCell>
        <mxCell id="Ufp4T4kjw3DvkqteefDN-164" style="edgeStyle=orthogonalEdgeStyle;rounded=0;orthogonalLoop=1;jettySize=auto;html=1;exitX=0.5;exitY=0;exitDx=0;exitDy=0;entryX=0.5;entryY=1;entryDx=0;entryDy=0;dashed=1;dashPattern=1 1;endArrow=classic;endFill=1;sketch=1;" edge="1" parent="1" source="Ufp4T4kjw3DvkqteefDN-165" target="Ufp4T4kjw3DvkqteefDN-173">
          <mxGeometry relative="1" as="geometry" />
        </mxCell>
        <mxCell id="Ufp4T4kjw3DvkqteefDN-165" value="0" style="rounded=0;whiteSpace=wrap;html=1;sketch=1;shadow=1;fillColor=#f8cecc;gradientColor=#ea6b66;strokeColor=#b85450;" vertex="1" parent="1">
          <mxGeometry x="320" y="745" width="40" height="30" as="geometry" />
        </mxCell>
        <mxCell id="Ufp4T4kjw3DvkqteefDN-166" value="1" style="rounded=0;whiteSpace=wrap;html=1;sketch=1;shadow=1;fillColor=#f8cecc;gradientColor=#ea6b66;strokeColor=#b85450;" vertex="1" parent="1">
          <mxGeometry x="360" y="745" width="40" height="30" as="geometry" />
        </mxCell>
        <mxCell id="Ufp4T4kjw3DvkqteefDN-167" value="2" style="rounded=0;whiteSpace=wrap;html=1;sketch=1;shadow=1;fillColor=#f8cecc;gradientColor=#ea6b66;strokeColor=#b85450;" vertex="1" parent="1">
          <mxGeometry x="400" y="745" width="40" height="30" as="geometry" />
        </mxCell>
        <mxCell id="Ufp4T4kjw3DvkqteefDN-168" value="3" style="rounded=0;whiteSpace=wrap;html=1;sketch=1;shadow=1;fillColor=#f8cecc;gradientColor=#ea6b66;strokeColor=#b85450;" vertex="1" parent="1">
          <mxGeometry x="440" y="745" width="40" height="30" as="geometry" />
        </mxCell>
        <mxCell id="Ufp4T4kjw3DvkqteefDN-169" style="edgeStyle=orthogonalEdgeStyle;rounded=0;orthogonalLoop=1;jettySize=auto;html=1;exitX=0.5;exitY=0;exitDx=0;exitDy=0;entryX=0.5;entryY=1;entryDx=0;entryDy=0;dashed=1;dashPattern=1 1;endArrow=classic;endFill=1;sketch=1;" edge="1" parent="1" source="Ufp4T4kjw3DvkqteefDN-170" target="Ufp4T4kjw3DvkqteefDN-175">
          <mxGeometry relative="1" as="geometry" />
        </mxCell>
        <mxCell id="Ufp4T4kjw3DvkqteefDN-170" value="4" style="rounded=0;whiteSpace=wrap;html=1;sketch=1;shadow=1;fillColor=#f8cecc;gradientColor=#ea6b66;strokeColor=#b85450;" vertex="1" parent="1">
          <mxGeometry x="480" y="745" width="40" height="30" as="geometry" />
        </mxCell>
        <mxCell id="Ufp4T4kjw3DvkqteefDN-171" value="5" style="rounded=0;whiteSpace=wrap;html=1;sketch=1;shadow=1;fillColor=#f8cecc;gradientColor=#ea6b66;strokeColor=#b85450;" vertex="1" parent="1">
          <mxGeometry x="520" y="745" width="40" height="30" as="geometry" />
        </mxCell>
        <mxCell id="Ufp4T4kjw3DvkqteefDN-172" value="" style="edgeStyle=orthogonalEdgeStyle;rounded=0;sketch=1;orthogonalLoop=1;jettySize=auto;html=1;dashed=1;dashPattern=1 1;endArrow=classic;endFill=1;" edge="1" parent="1" source="Ufp4T4kjw3DvkqteefDN-173" target="Ufp4T4kjw3DvkqteefDN-177">
          <mxGeometry relative="1" as="geometry" />
        </mxCell>
        <mxCell id="Ufp4T4kjw3DvkqteefDN-173" value="" style="ellipse;whiteSpace=wrap;html=1;aspect=fixed;shadow=1;sketch=1;fillColor=#d5e8d4;gradientColor=#97d077;strokeColor=#82b366;" vertex="1" parent="1">
          <mxGeometry x="330" y="705" width="20" height="20" as="geometry" />
        </mxCell>
        <mxCell id="Ufp4T4kjw3DvkqteefDN-174" value="" style="edgeStyle=orthogonalEdgeStyle;rounded=0;sketch=1;orthogonalLoop=1;jettySize=auto;html=1;dashed=1;dashPattern=1 1;endArrow=classic;endFill=1;" edge="1" parent="1" source="Ufp4T4kjw3DvkqteefDN-175" target="Ufp4T4kjw3DvkqteefDN-179">
          <mxGeometry relative="1" as="geometry" />
        </mxCell>
        <mxCell id="Ufp4T4kjw3DvkqteefDN-175" value="" style="ellipse;whiteSpace=wrap;html=1;aspect=fixed;shadow=1;sketch=1;fillColor=#d5e8d4;gradientColor=#97d077;strokeColor=#82b366;" vertex="1" parent="1">
          <mxGeometry x="490" y="705" width="20" height="20" as="geometry" />
        </mxCell>
        <mxCell id="Ufp4T4kjw3DvkqteefDN-176" value="" style="edgeStyle=orthogonalEdgeStyle;rounded=0;sketch=1;orthogonalLoop=1;jettySize=auto;html=1;dashed=1;dashPattern=1 1;endArrow=classic;endFill=1;" edge="1" parent="1" source="Ufp4T4kjw3DvkqteefDN-177" target="Ufp4T4kjw3DvkqteefDN-181">
          <mxGeometry relative="1" as="geometry" />
        </mxCell>
        <mxCell id="Ufp4T4kjw3DvkqteefDN-177" value="" style="ellipse;whiteSpace=wrap;html=1;aspect=fixed;shadow=1;sketch=1;fillColor=#d5e8d4;gradientColor=#97d077;strokeColor=#82b366;" vertex="1" parent="1">
          <mxGeometry x="330" y="666" width="20" height="20" as="geometry" />
        </mxCell>
        <mxCell id="Ufp4T4kjw3DvkqteefDN-178" value="" style="line;strokeWidth=2;html=1;shadow=1;sketch=1;fillColor=#f5f5f5;gradientColor=#b3b3b3;strokeColor=#666666;" vertex="1" parent="1">
          <mxGeometry x="480" y="785" width="160" height="10" as="geometry" />
        </mxCell>
        <mxCell id="Ufp4T4kjw3DvkqteefDN-179" value="" style="ellipse;whiteSpace=wrap;html=1;aspect=fixed;shadow=1;sketch=1;fillColor=#d5e8d4;gradientColor=#97d077;strokeColor=#82b366;" vertex="1" parent="1">
          <mxGeometry x="490" y="655" width="20" height="20" as="geometry" />
        </mxCell>
        <mxCell id="Ufp4T4kjw3DvkqteefDN-180" value="" style="edgeStyle=orthogonalEdgeStyle;rounded=0;sketch=1;orthogonalLoop=1;jettySize=auto;html=1;dashed=1;dashPattern=1 1;endArrow=classic;endFill=1;" edge="1" parent="1" source="Ufp4T4kjw3DvkqteefDN-181" target="Ufp4T4kjw3DvkqteefDN-182">
          <mxGeometry relative="1" as="geometry" />
        </mxCell>
        <mxCell id="Ufp4T4kjw3DvkqteefDN-181" value="" style="ellipse;whiteSpace=wrap;html=1;aspect=fixed;shadow=1;sketch=1;fillColor=#d5e8d4;gradientColor=#97d077;strokeColor=#82b366;" vertex="1" parent="1">
          <mxGeometry x="330" y="626" width="20" height="20" as="geometry" />
        </mxCell>
        <mxCell id="Ufp4T4kjw3DvkqteefDN-182" value="" style="ellipse;whiteSpace=wrap;html=1;aspect=fixed;shadow=1;sketch=1;fillColor=#d5e8d4;gradientColor=#97d077;strokeColor=#82b366;" vertex="1" parent="1">
          <mxGeometry x="330" y="585" width="20" height="20" as="geometry" />
        </mxCell>
        <mxCell id="Ufp4T4kjw3DvkqteefDN-185" value="" style="rounded=0;whiteSpace=wrap;html=1;sketch=1;shadow=1;fillColor=#f5f5f5;gradientColor=#b3b3b3;strokeColor=#666666;" vertex="1" parent="1">
          <mxGeometry x="560" y="745" width="40" height="30" as="geometry" />
        </mxCell>
        <mxCell id="Ufp4T4kjw3DvkqteefDN-187" value="" style="rounded=0;whiteSpace=wrap;html=1;sketch=1;shadow=1;fillColor=#f5f5f5;gradientColor=#b3b3b3;strokeColor=#666666;" vertex="1" parent="1">
          <mxGeometry x="600" y="745" width="40" height="30" as="geometry" />
        </mxCell>
        <mxCell id="Ufp4T4kjw3DvkqteefDN-189" style="edgeStyle=orthogonalEdgeStyle;rounded=0;orthogonalLoop=1;jettySize=auto;html=1;exitX=0.5;exitY=0;exitDx=0;exitDy=0;entryX=0.5;entryY=1;entryDx=0;entryDy=0;dashed=1;dashPattern=1 1;endArrow=classic;endFill=1;sketch=1;" edge="1" parent="1" source="Ufp4T4kjw3DvkqteefDN-190" target="Ufp4T4kjw3DvkqteefDN-198">
          <mxGeometry relative="1" as="geometry" />
        </mxCell>
        <mxCell id="Ufp4T4kjw3DvkqteefDN-190" value="0" style="rounded=0;whiteSpace=wrap;html=1;sketch=1;shadow=1;fillColor=#f8cecc;gradientColor=#ea6b66;strokeColor=#b85450;" vertex="1" parent="1">
          <mxGeometry x="280" y="1120" width="40" height="30" as="geometry" />
        </mxCell>
        <mxCell id="Ufp4T4kjw3DvkqteefDN-191" value="1" style="rounded=0;whiteSpace=wrap;html=1;sketch=1;shadow=1;fillColor=#f8cecc;gradientColor=#ea6b66;strokeColor=#b85450;" vertex="1" parent="1">
          <mxGeometry x="320" y="1120" width="40" height="30" as="geometry" />
        </mxCell>
        <mxCell id="Ufp4T4kjw3DvkqteefDN-192" value="2" style="rounded=0;whiteSpace=wrap;html=1;sketch=1;shadow=1;fillColor=#f8cecc;gradientColor=#ea6b66;strokeColor=#b85450;" vertex="1" parent="1">
          <mxGeometry x="360" y="1120" width="40" height="30" as="geometry" />
        </mxCell>
        <mxCell id="Ufp4T4kjw3DvkqteefDN-193" value="3" style="rounded=0;whiteSpace=wrap;html=1;sketch=1;shadow=1;fillColor=#f8cecc;gradientColor=#ea6b66;strokeColor=#b85450;" vertex="1" parent="1">
          <mxGeometry x="400" y="1120" width="40" height="30" as="geometry" />
        </mxCell>
        <mxCell id="Ufp4T4kjw3DvkqteefDN-195" value="4" style="rounded=0;whiteSpace=wrap;html=1;sketch=1;shadow=1;fillColor=#f8cecc;gradientColor=#ea6b66;strokeColor=#b85450;" vertex="1" parent="1">
          <mxGeometry x="440" y="1120" width="40" height="30" as="geometry" />
        </mxCell>
        <mxCell id="Ufp4T4kjw3DvkqteefDN-196" value="5" style="rounded=0;whiteSpace=wrap;html=1;sketch=1;shadow=1;fillColor=#f8cecc;gradientColor=#ea6b66;strokeColor=#b85450;" vertex="1" parent="1">
          <mxGeometry x="480" y="1120" width="40" height="30" as="geometry" />
        </mxCell>
        <mxCell id="Ufp4T4kjw3DvkqteefDN-197" value="" style="edgeStyle=orthogonalEdgeStyle;rounded=0;sketch=1;orthogonalLoop=1;jettySize=auto;html=1;dashed=1;dashPattern=1 1;endArrow=classic;endFill=1;" edge="1" parent="1" source="Ufp4T4kjw3DvkqteefDN-198" target="Ufp4T4kjw3DvkqteefDN-202">
          <mxGeometry relative="1" as="geometry" />
        </mxCell>
        <mxCell id="Ufp4T4kjw3DvkqteefDN-198" value="" style="ellipse;whiteSpace=wrap;html=1;aspect=fixed;shadow=1;sketch=1;fillColor=#d5e8d4;gradientColor=#97d077;strokeColor=#82b366;" vertex="1" parent="1">
          <mxGeometry x="290" y="1080" width="20" height="20" as="geometry" />
        </mxCell>
        <mxCell id="Ufp4T4kjw3DvkqteefDN-201" value="" style="edgeStyle=orthogonalEdgeStyle;rounded=0;sketch=1;orthogonalLoop=1;jettySize=auto;html=1;dashed=1;dashPattern=1 1;endArrow=classic;endFill=1;" edge="1" parent="1" source="Ufp4T4kjw3DvkqteefDN-202" target="Ufp4T4kjw3DvkqteefDN-206">
          <mxGeometry relative="1" as="geometry" />
        </mxCell>
        <mxCell id="Ufp4T4kjw3DvkqteefDN-202" value="" style="ellipse;whiteSpace=wrap;html=1;aspect=fixed;shadow=1;sketch=1;fillColor=#d5e8d4;gradientColor=#97d077;strokeColor=#82b366;" vertex="1" parent="1">
          <mxGeometry x="290" y="1041" width="20" height="20" as="geometry" />
        </mxCell>
        <mxCell id="Ufp4T4kjw3DvkqteefDN-203" value="" style="line;strokeWidth=2;html=1;shadow=1;sketch=1;fillColor=#f5f5f5;gradientColor=#b3b3b3;strokeColor=#666666;" vertex="1" parent="1">
          <mxGeometry x="280" y="1160" width="320" height="10" as="geometry" />
        </mxCell>
        <mxCell id="Ufp4T4kjw3DvkqteefDN-205" value="" style="edgeStyle=orthogonalEdgeStyle;rounded=0;sketch=1;orthogonalLoop=1;jettySize=auto;html=1;dashed=1;dashPattern=1 1;endArrow=classic;endFill=1;" edge="1" parent="1" source="Ufp4T4kjw3DvkqteefDN-206" target="Ufp4T4kjw3DvkqteefDN-207">
          <mxGeometry relative="1" as="geometry" />
        </mxCell>
        <mxCell id="Ufp4T4kjw3DvkqteefDN-206" value="" style="ellipse;whiteSpace=wrap;html=1;aspect=fixed;shadow=1;sketch=1;fillColor=#d5e8d4;gradientColor=#97d077;strokeColor=#82b366;" vertex="1" parent="1">
          <mxGeometry x="290" y="1001" width="20" height="20" as="geometry" />
        </mxCell>
        <mxCell id="Ufp4T4kjw3DvkqteefDN-211" value="" style="edgeStyle=orthogonalEdgeStyle;rounded=0;sketch=1;orthogonalLoop=1;jettySize=auto;html=1;dashed=1;dashPattern=1 1;endArrow=classic;endFill=1;" edge="1" parent="1" source="Ufp4T4kjw3DvkqteefDN-207" target="Ufp4T4kjw3DvkqteefDN-210">
          <mxGeometry relative="1" as="geometry" />
        </mxCell>
        <mxCell id="Ufp4T4kjw3DvkqteefDN-207" value="" style="ellipse;whiteSpace=wrap;html=1;aspect=fixed;shadow=1;sketch=1;fillColor=#d5e8d4;gradientColor=#97d077;strokeColor=#82b366;" vertex="1" parent="1">
          <mxGeometry x="290" y="960" width="20" height="20" as="geometry" />
        </mxCell>
        <mxCell id="Ufp4T4kjw3DvkqteefDN-208" value="" style="rounded=0;whiteSpace=wrap;html=1;sketch=1;shadow=1;fillColor=#f5f5f5;gradientColor=#b3b3b3;strokeColor=#666666;" vertex="1" parent="1">
          <mxGeometry x="520" y="1120" width="40" height="30" as="geometry" />
        </mxCell>
        <mxCell id="Ufp4T4kjw3DvkqteefDN-209" value="" style="rounded=0;whiteSpace=wrap;html=1;sketch=1;shadow=1;fillColor=#f5f5f5;gradientColor=#b3b3b3;strokeColor=#666666;" vertex="1" parent="1">
          <mxGeometry x="560" y="1120" width="40" height="30" as="geometry" />
        </mxCell>
        <mxCell id="Ufp4T4kjw3DvkqteefDN-213" value="" style="edgeStyle=orthogonalEdgeStyle;rounded=0;sketch=1;orthogonalLoop=1;jettySize=auto;html=1;dashed=1;dashPattern=1 1;endArrow=classic;endFill=1;" edge="1" parent="1" source="Ufp4T4kjw3DvkqteefDN-210" target="Ufp4T4kjw3DvkqteefDN-212">
          <mxGeometry relative="1" as="geometry" />
        </mxCell>
        <mxCell id="Ufp4T4kjw3DvkqteefDN-210" value="" style="ellipse;whiteSpace=wrap;html=1;aspect=fixed;shadow=1;sketch=1;fillColor=#d5e8d4;gradientColor=#97d077;strokeColor=#82b366;" vertex="1" parent="1">
          <mxGeometry x="290" y="920" width="20" height="20" as="geometry" />
        </mxCell>
        <mxCell id="Ufp4T4kjw3DvkqteefDN-212" value="" style="ellipse;whiteSpace=wrap;html=1;aspect=fixed;shadow=1;sketch=1;fillColor=#d5e8d4;gradientColor=#97d077;strokeColor=#82b366;" vertex="1" parent="1">
          <mxGeometry x="290" y="880" width="20" height="20" as="geometry" />
        </mxCell>
        <mxCell id="Ufp4T4kjw3DvkqteefDN-221" value="&lt;font style=&quot;font-size: 18px&quot; face=&quot;Comic Sans MS&quot;&gt;i = 1&lt;/font&gt;" style="text;html=1;strokeColor=none;fillColor=none;align=center;verticalAlign=middle;whiteSpace=wrap;rounded=0;shadow=1;sketch=1;" vertex="1" parent="1">
          <mxGeometry x="-80" y="280" width="80" height="40" as="geometry" />
        </mxCell>
        <mxCell id="Ufp4T4kjw3DvkqteefDN-224" value="&lt;font style=&quot;font-size: 14px&quot;&gt;j = 2 j+i = 3&lt;/font&gt;" style="text;html=1;strokeColor=none;fillColor=none;align=center;verticalAlign=middle;whiteSpace=wrap;rounded=0;shadow=1;sketch=1;fontFamily=Comic Sans MS;fontSize=16;" vertex="1" parent="1">
          <mxGeometry x="400" y="480" width="80" height="50" as="geometry" />
        </mxCell>
        <mxCell id="Ufp4T4kjw3DvkqteefDN-225" value="&lt;font style=&quot;font-size: 14px&quot;&gt;j = 0 j+i = 1&lt;/font&gt;" style="text;html=1;strokeColor=none;fillColor=none;align=center;verticalAlign=middle;whiteSpace=wrap;rounded=0;shadow=1;sketch=1;fontFamily=Comic Sans MS;fontSize=16;" vertex="1" parent="1">
          <mxGeometry y="480" width="80" height="50" as="geometry" />
        </mxCell>
        <mxCell id="Ufp4T4kjw3DvkqteefDN-226" value="&lt;font style=&quot;font-size: 14px&quot;&gt;j = 4 j+i = 5&lt;/font&gt;" style="text;html=1;strokeColor=none;fillColor=none;align=center;verticalAlign=middle;whiteSpace=wrap;rounded=0;shadow=1;sketch=1;fontFamily=Comic Sans MS;fontSize=16;" vertex="1" parent="1">
          <mxGeometry x="800" y="480" width="80" height="50" as="geometry" />
        </mxCell>
        <mxCell id="Ufp4T4kjw3DvkqteefDN-227" value="&lt;font style=&quot;font-size: 14px&quot;&gt;j = 0 j+i = 2&lt;/font&gt;" style="text;html=1;strokeColor=none;fillColor=none;align=center;verticalAlign=middle;whiteSpace=wrap;rounded=0;shadow=1;sketch=1;fontFamily=Comic Sans MS;fontSize=16;" vertex="1" parent="1">
          <mxGeometry x="40" y="800" width="80" height="50" as="geometry" />
        </mxCell>
        <mxCell id="Ufp4T4kjw3DvkqteefDN-228" value="&lt;font style=&quot;font-size: 18px&quot; face=&quot;Comic Sans MS&quot;&gt;i = 2&lt;/font&gt;" style="text;html=1;strokeColor=none;fillColor=none;align=center;verticalAlign=middle;whiteSpace=wrap;rounded=0;shadow=1;sketch=1;" vertex="1" parent="1">
          <mxGeometry x="-80" y="640" width="80" height="40" as="geometry" />
        </mxCell>
        <mxCell id="Ufp4T4kjw3DvkqteefDN-230" value="&lt;font style=&quot;font-size: 14px&quot;&gt;j = 4 j+i = 6&lt;/font&gt;" style="text;html=1;strokeColor=none;fillColor=none;align=center;verticalAlign=middle;whiteSpace=wrap;rounded=0;shadow=1;sketch=1;fontFamily=Comic Sans MS;fontSize=16;" vertex="1" parent="1">
          <mxGeometry x="520" y="800" width="80" height="50" as="geometry" />
        </mxCell>
        <mxCell id="Ufp4T4kjw3DvkqteefDN-231" value="&lt;font style=&quot;font-size: 18px&quot; face=&quot;Comic Sans MS&quot;&gt;i = 4&lt;/font&gt;" style="text;html=1;strokeColor=none;fillColor=none;align=center;verticalAlign=middle;whiteSpace=wrap;rounded=0;shadow=1;sketch=1;" vertex="1" parent="1">
          <mxGeometry x="200" y="1040" width="80" height="40" as="geometry" />
        </mxCell>
        <mxCell id="Ufp4T4kjw3DvkqteefDN-232" value="&lt;font style=&quot;font-size: 14px&quot;&gt;j = 0 j+i = 4&lt;/font&gt;" style="text;html=1;strokeColor=none;fillColor=none;align=center;verticalAlign=middle;whiteSpace=wrap;rounded=0;shadow=1;sketch=1;fontFamily=Comic Sans MS;fontSize=16;" vertex="1" parent="1">
          <mxGeometry x="350" y="1169" width="80" height="50" as="geometry" />
        </mxCell>
      </root>
    </mxGraphModel>
  </diagram>
</mxfile>
